<svg width="512" height="606" xmlns="http://www.w3.org/2000/svg">
 <g id="Layer_1">
  <title>Layer 1</title>
  <rect stroke="#000" id="svg_1" height="606" width="528" y="0" x="0" fill="#0ca789"/>
  <path id="svg_3" d="m98.99998,112.50448" opacity="NaN" stroke="#000" fill="#0ca789"/>
  <path stroke="#000000" d="m106.76909,253.83565c0,2.7972 2.34381,16.60965 3.7578,33.56636c1.78218,21.3721 -0.21153,51.26028 -2.81835,77.38911c-2.04496,20.49712 -2.89129,32.22185 -6.57614,37.29595c-0.77683,1.06972 -2.95657,1.22816 -3.7578,-3.7296c-2.3852,-14.75884 4.12432,-42.24992 10.33394,-69.92991c5.30058,-23.62789 15.49658,-53.91461 16.91008,-71.79471c0.58788,-7.43634 -1.04016,-17.48074 0.93945,-16.78318c16.32424,5.75227 -6.93491,36.19717 -15.03118,103.49627c-2.23869,18.6088 -7.51559,68.06512 -7.51559,83.9159c0,7.45919 -0.93945,4.66199 -0.93945,-2.7972c0,-27.97197 -1.62457,-58.92662 1.8789,-82.0511c1.2879,-8.50074 6.83906,-23.95219 12.21283,-48.48474c2.42796,-11.0842 5.63395,-15.95768 6.57614,-3.7296c3.51004,45.55455 -6.42199,93.63566 -13.15228,133.33304c-4.69995,27.72176 0.97846,58.27564 -7.51559,57.80873c-2.81403,-0.15468 -0.62314,-9.41834 4.69724,-41.95795c6.7298,-41.15971 19.43157,-85.61449 33.82016,-141.72463c7.868,-30.68226 7.7715,-59.27694 13.15228,-78.3215c1.93176,-6.8372 4.9477,5.70508 1.8789,47.55234c-5.6516,77.0672 -22.12059,122.79617 -28.18346,157.57541c-3.7149,21.31021 -1.95429,31.05889 -4.69724,31.70156c-2.04448,0.479 -2.34876,-11.17214 -1.8789,-30.76916c0.78221,-32.62471 2.4895,-65.484 9.39449,-101.63148c5.56135,-29.11349 8.45504,-51.28194 8.45504,-65.26792c0,-6.52679 0.9175,-5.67896 2.81835,19.58038c3.64118,48.38583 -1.90206,96.04198 -13.15228,132.40064c-11.37127,36.74985 -18.81089,43.75995 -16.91008,22.37757c3.74835,-42.16547 9.6186,-86.68771 13.15228,-118.41465c3.00935,-27.01928 6.57614,-44.75515 6.57614,-52.21434c0,-1.8648 0,-0.9324 0,2.7972c0,50.34954 -4.68433,109.50431 -9.39449,172.49379c-1.8078,24.17587 -1.32858,31.31535 0,32.63396c0.66429,0.65929 0.93913,-6.49 1.8789,-41.95795c1.43241,-54.06044 0.93896,-121.16678 1.8789,-150.11622c0.45386,-13.97873 0.30233,-15.04028 0.93945,-13.05358c7.49534,23.37226 6.88567,64.50798 0,109.09067c-6.36581,41.21671 -21.4443,89.57198 -27.24401,104.42867c-1.82774,4.682 -2.34507,3.81559 -2.81835,0c-4.24704,-34.24028 6.18399,-69.62696 8.45504,-67.13272c12.11589,13.30663 16.42684,48.10942 18.78898,69.92991c0.80286,7.41651 -2.288,13.01548 -6.57614,14.91838c-4.37306,1.94057 -7.51559,0 -7.51559,0.9324c0,0.9324 41.38562,8.60599 128.70448,-7.45919c28.67974,-5.27658 79.01814,-14.47028 77.97425,-26.10717c-0.26345,-2.93688 -15.03118,-1.8648 -74.21645,-1.8648c-45.09354,0 -86.59235,1.45238 -118.37055,-2.7972c-10.40929,-1.392 -8.56275,-2.79446 3.7578,-3.7296c29.97485,-2.27508 75.1559,-1.8648 118.37055,-1.8648c25.36512,0 30.12065,0.46461 24.42567,0.9324c-56.17487,4.61428 -110.97313,-3.30485 -157.82739,0c-6.62619,0.46737 2.86965,0.53443 84.55039,-7.45919c35.72305,-3.49601 107.07732,-6.52671 173.79802,-7.45919c3.75742,-0.05253 -2.97927,-1.34966 -40.3963,3.7296c-43.45871,5.89937 -92.06598,18.64798 -139.03842,27.97197c-37.57795,7.45919 -38.56346,7.18739 -28.18346,5.59439c43.98964,-6.75099 98.5513,-13.05262 156.88795,-14.91838c19.71819,-0.63064 15.21705,2.51094 -26.30457,6.52679c-63.69125,6.16004 -150.3118,-22.37757 -150.3118,3.7296c0,1.8648 32.87599,-3.88066 91.12653,-5.59439c69.51405,-2.04509 181.83626,-22.23786 184.13196,-3.7296c0.47328,3.81559 -39.43612,5.59428 -103.33937,6.52679c-112.72167,1.64487 -161.03747,4.63018 -161.58519,0c-2.36475,-19.99041 72.35374,-8.1355 134.34117,-12.12119c54.5032,-3.50446 77.0348,-3.7296 73.277,-3.7296c-46.97244,0 -161.61813,-2.09482 -229.2255,0c-30.10635,0.93285 -27.24401,0.9324 1.8789,-2.7972c58.24582,-7.45919 122.43101,-21.68189 162.52464,-16.78318c3.84443,0.46973 -20.71936,10.07121 -51.66968,18.64798c-19.76203,5.47634 -23.58818,9.00106 -19.72842,9.32399c24.41123,2.04247 69.21651,-4.56969 109.91551,-14.91838c34.53423,-8.78116 38.79257,-12.78048 39.45685,-12.12119c0.66428,0.65929 2.29504,-0.33687 3.7578,1.8648c2.78497,4.19184 3.8293,6.88361 4.69724,6.52679c2.4549,-1.00923 5.09074,-6.91733 6.57614,-8.39159c1.48541,-1.47426 3.14289,-0.7537 5.63669,-5.59439c6.51433,-12.64481 19.34806,-50.26841 19.72842,-70.86231c1.27603,-69.08663 -5.63669,-75.52431 -5.63669,-73.65951c0,42.89035 -8.84406,107.84848 -7.51559,155.71061c0.60396,21.75883 6.96037,26.25314 7.51559,24.24237c3.485,-12.62147 -1.81046,-45.73455 -4.69724,-96.03708c-2.78615,-48.54928 -9.54045,-78.83145 -3.7578,-80.1863c1.29303,-0.30296 5.21978,5.48656 5.63669,41.02555c0.7887,67.23168 -17.84953,104.42867 -8.45504,104.42867c3.7578,0 0,-13.05358 0,-57.80873c0,-67.13272 -20.02126,-140.36037 -5.63669,-149.18382c3.57388,-2.1922 16.60982,21.11456 18.78898,61.53832c3.16367,58.68678 -1.92124,84.96007 -3.7578,99.76668c-0.94653,7.63114 -3.1846,8.48748 -3.7578,5.59439c-5.44982,-27.5073 -6.57325,-79.996 -9.39449,-141.72463c-1.10682,-24.21747 3.61794,-26.58707 5.63669,-22.37757c18.31168,38.18358 9.12132,96.8269 2.81835,154.77821c-4.65544,42.80353 -9.39449,66.20032 -5.63669,66.20032c2.81835,0 3.82829,-30.80778 1.8789,-79.2539c-1.88039,-46.73163 -9.81553,-82.19509 -4.69724,-93.23989c0.55516,-1.19798 9.68333,0.9254 16.91008,52.21434c6.25074,44.3623 -6.26588,82.05562 -0.93945,96.03708c0.46987,1.23339 3.85427,-1.66684 6.57614,-38.22835c6.92388,-93.00501 -8.41866,-141.27657 -5.63669,-141.72463c8.7973,-1.41689 6.64291,35.23236 0,55.01153c-1.32858,3.95584 -2.26961,4.88476 -3.7578,1.8648c-3.91568,-7.94606 -16.91008,-50.34954 -27.24401,-73.65951c0,0 12.33577,19.11595 19.72842,61.53832c4.64581,26.65984 3.20848,31.52557 3.7578,30.76916c1.73707,-2.39195 -0.59604,-10.24225 -12.21283,-43.82275c-13.3815,-38.68173 -19.71096,-39.81417 -11.27339,-13.98598c6.78282,20.76282 10.84236,26.75373 10.33394,27.97197c-0.35952,0.86142 -1.14733,-3.09422 -3.7578,-8.39159c-1.48819,-3.01997 -1.8789,-3.7296 -1.8789,-7.45919c0,-3.7296 2.5295,-6.70022 3.7578,-8.39159c1.55367,-2.13943 3.67116,-1.40211 7.51559,-0.9324c0.9324,0.11392 2.81835,0 1.8789,-2.7972c-0.93945,-2.7972 -6.41338,-13.15127 -20.66787,-36.36356c-24.1511,-39.32815 -70.87566,-103.14155 -94.88433,-124.00905c-5.51989,-4.79769 -5.56912,-5.63796 -3.7578,-2.7972c5.8586,9.18826 14.14053,26.68045 25.36512,42.89035c8.72706,12.60307 10.98852,13.26864 10.33394,12.12119c-1.90846,-3.34538 -6.15851,-25.66343 -31.00181,-55.94393c-12.58348,-15.3375 -14.64735,-12.87045 -13.15228,-9.32399c17.41277,41.30485 39.75395,63.15515 49.79079,71.79471c3.54856,3.05455 -9.88566,-13.93146 -37.57795,-46.61994c-24.37154,-28.7686 -32.24917,-29.71558 -31.00181,-27.03957c15.22089,32.65389 31.94126,52.21434 43.21464,63.40312c0.93945,0.9324 -2.91912,-4.60395 -15.97063,-27.03957c-22.72269,-39.06047 -38.88658,-56.71249 -36.6385,-52.21434c4.86833,9.74103 32.50835,45.9977 55.42748,72.72711c25.88883,30.19282 38.92414,49.67689 46.97244,65.26792c4.41032,8.54359 5.2432,11.73065 3.7578,10.25639c-10.39778,-10.31977 -21.09643,-35.7819 -31.00181,-60.60593c-6.56321,-16.44813 -21.80531,-39.11659 -9.39449,-43.82275c3.16416,-1.19984 7.40401,11.74441 18.78898,31.70156c36.21015,63.47409 59.93685,87.44083 65.76141,95.10468c8.00065,10.52712 8.14377,9.53683 5.63669,5.59439c-11.88677,-18.6923 -29.87951,-55.75424 -56.36693,-85.78069c-3.50069,-3.96841 -1.52804,2.59077 17.84953,35.43116c11.48259,19.46026 18.42946,28.83338 18.78898,27.97197c0.50843,-1.21824 -4.79088,-10.87311 -18.78898,-28.90436c-19.52877,-25.15543 -36.7094,-38.11988 -49.79079,-46.61994c-8.50171,-5.52427 -13.51776,-9.00318 -15.97063,-12.12119c-3.37116,-4.28529 -4.85986,-6.38948 -5.63669,-7.45919c-1.2283,-1.69137 -2.77623,-3.30923 -3.7578,-6.52679c-1.08896,-3.56957 0,-6.52679 0,-9.32399c0,-3.7296 -1.82256,-5.94437 -4.69724,-11.18879c-1.41969,-2.59003 -1.8789,-4.66199 -2.81835,-5.59439c-0.93945,-0.9324 -4.5045,-2.54722 -14.09173,2.7972c-20.979,11.69477 -55.25163,41.66391 -124.00724,88.57789c-24.04852,16.40902 -29.0826,21.71536 -28.18346,21.44517c3.24189,-0.9742 9.05751,-5.23752 15.03118,-15.85078c17.82706,-31.67286 25.36512,-44.75515 35.69905,-55.01153c8.45504,-8.39159 13.31346,-16.78318 15.97063,-16.78318c1.32858,0 2.37709,9.56796 -2.81835,35.43116c-6.63817,33.04524 -19.7295,78.52746 -50.73023,126.80624c-7.98309,12.43242 -10.33394,13.05358 -10.33394,12.12119c0,-12.12119 5.92033,-43.87096 25.36512,-74.59191c30.59427,-48.33608 59.49587,-65.7952 79.85315,-85.78069c8.04258,-7.89571 8.70127,-9.23028 7.51559,-6.52679c-9.39611,21.4242 -28.61256,64.2741 -56.36693,108.15827c-27.70489,43.80593 -31.13211,45.67854 -31.00181,44.75515c2.84585,-20.16707 10.88619,-67.86063 46.97244,-137.06263c9.34141,-17.91387 32.21748,-43.32595 34.7596,-49.41714c0.35952,-0.86142 0.31509,5.17182 -7.51559,22.37757c-16.26567,35.73927 -48.22624,67.251 -62.00362,89.51029c-7.26039,11.73018 -7.60816,13.04905 -7.51559,12.12119c0.94405,-9.46236 9.09952,-30.56149 30.06236,-64.33552c21.31885,-34.34761 52.02788,-51.07468 60.12472,-65.26792c0.46287,-0.81137 0.13743,3.40285 -8.45504,27.97197c-16.8278,48.11707 -50.95529,89.08544 -71.39811,128.67104c-8.27578,16.02528 -8.22125,16.75684 -7.51559,7.45919c2.35527,-31.03242 18.21211,-69.35365 44.15409,-97.90188c26.69409,-29.37588 48.0312,-48.86237 52.60913,-58.74113c1.24137,-2.67875 -3.42567,-0.29137 -14.09173,22.37757c-19.93854,42.37603 -36.53353,79.14428 -47.91189,92.30749c-6.05556,7.00547 -7.6181,7.45363 -7.51559,6.52679c0.9451,-8.54496 18.82097,-42.35495 58.24582,-83.9159c32.8365,-34.61563 41.6647,-32.40344 42.27519,-29.83676c4.09529,17.21777 -14.64675,37.82465 -38.5174,57.80873c-29.47698,24.6776 -51.59311,36.46104 -64.82197,46.61994c-19.61595,15.06377 -29.71508,23.83479 -36.6385,27.97197c-1.79965,1.07541 -2.33571,1.70046 -2.81835,3.7296c-0.86337,3.62982 4.62074,9.28841 -3.7578,14.91838c-0.77792,0.52272 -1.15988,0.14195 -1.8789,1.8648c-0.50843,1.21824 -2.81835,-0.9324 -2.81835,0c0,1.8648 4.68098,-0.12096 11.27339,-0.9324c35.62338,-4.38475 97.70267,-5.59439 133.40173,-5.59439c67.64031,0 124.55053,7.26305 150.3118,-10.25639c7.74974,-5.27035 1.8309,-9.78187 -9.39449,-8.39159c-17.0114,2.10686 -66.04596,19.81194 -111.7944,27.97197c-50.23759,8.96075 -103.37559,10.9814 -141.85676,9.32399c-21.66847,-0.93328 -19.75772,-3.263 -8.45504,-3.7296c34.72957,-1.43373 77.0348,0 122.12834,0c50.73023,0 58.38158,-1.27431 56.36693,-1.8648c-8.15874,-2.39131 -31.94126,-0.9324 -96.76322,-0.9324c-45.09354,0 -77.0348,-1.8648 -77.0348,1.8648c0,2.7972 24.42567,0 64.82197,0c52.60913,0 133.41973,-0.93446 157.82739,-1.8648c24.47977,-0.93308 21.61948,-2.33093 -5.63669,-2.7972c-45.08683,-0.7713 -96.04101,0.66996 -140.91732,9.32399c-34.00915,6.55839 -41.31149,9.62269 -39.45685,9.32399c2.93244,-0.4723 20.71711,-2.33714 58.24582,-6.52679c45.15968,-5.04156 110.85496,-8.39159 110.85496,-14.91838c0,-0.9324 -36.6385,0 -96.76322,0c-60.12472,0 -121.56809,16.89188 -130.58338,-2.7972c-1.4014,-3.0606 24.45256,-4.11511 107.09716,-8.39159c63.90614,-3.30686 114.61275,8.39159 114.61275,-3.7296c0,-1.8648 -19.81223,1.04166 -61.06417,5.59439c-71.57238,7.89903 -120.24944,0.9324 -120.24944,11.18879c0,0.9324 17.9284,-1.56331 57.30638,-4.66199c50.88276,-4.004 110.85496,-1.8648 110.85496,-7.45919c0,-0.9324 -7.74463,0.64477 -15.97063,2.7972c-6.91823,1.81024 -13.15228,4.66199 -17.84953,6.52679l-2.81835,1.8648" id="svg_5" fill="none"/>
 </g>
</svg>